<?xml version="1.0" standalone="no"?>
<!DOCTYPE svg PUBLIC "-//W3C//DTD SVG 20010904//EN"
 "http://www.w3.org/TR/2001/REC-SVG-20010904/DTD/svg10.dtd">
<svg version="1.0" xmlns="http://www.w3.org/2000/svg"
 width="48.000000pt" height="48.000000pt" viewBox="0 0 48.000000 48.000000"
 preserveAspectRatio="xMidYMid meet">
<metadata>
Created by potrace 1.15, written by Peter Selinger 2001-2017
</metadata>
<g transform="translate(0.000000,48.000000) scale(0.100000,-0.100000)"
fill="#000000" stroke="none">
<path d="M291 146 c-24 -29 -100 -56 -155 -56 -30 0 -57 -3 -59 -7 -8 -14 12
-53 28 -53 15 0 21 25 8 33 -5 2 -3 3 3 1 7 -1 45 -6 85 -10 56 -5 77 -12 91
-28 18 -21 18 -21 33 -2 18 24 19 75 3 111 -13 29 -21 31 -37 11z"/>
</g>
</svg>
